<?xml version="1.0" encoding="UTF-8" standalone="no"?>
<!-- Created with Inkscape (http://www.inkscape.org/) -->

<svg
   xmlns:dc="http://purl.org/dc/elements/1.1/"
   xmlns:cc="http://creativecommons.org/ns#"
   xmlns:rdf="http://www.w3.org/1999/02/22-rdf-syntax-ns#"
   xmlns:svg="http://www.w3.org/2000/svg"
   xmlns="http://www.w3.org/2000/svg"
   xmlns:sodipodi="http://sodipodi.sourceforge.net/DTD/sodipodi-0.dtd"
   xmlns:inkscape="http://www.inkscape.org/namespaces/inkscape"
   width="350"
   height="250"
   viewBox="0 0 92.60417 66.145833"
   version="1.1"
   id="svg11885"
   inkscape:version="0.92.3 (2405546, 2018-03-11)"
   sodipodi:docname="port-logo.svg">
  <defs
     id="defs11879" />
  <sodipodi:namedview
     id="base"
     pagecolor="#ffffff"
     bordercolor="#666666"
     borderopacity="1.0"
     inkscape:pageopacity="0.0"
     inkscape:pageshadow="2"
     inkscape:zoom="0.98994949"
     inkscape:cx="37.274491"
     inkscape:cy="122.82368"
     inkscape:document-units="mm"
     inkscape:current-layer="layer1"
     showgrid="false"
     units="px"
     inkscape:window-width="1920"
     inkscape:window-height="1017"
     inkscape:window-x="-8"
     inkscape:window-y="-8"
     inkscape:window-maximized="1" />
  <metadata
     id="metadata11882">
    <rdf:RDF>
      <cc:Work
         rdf:about="">
        <dc:format>image/svg+xml</dc:format>
        <dc:type
           rdf:resource="http://purl.org/dc/dcmitype/StillImage" />
        <dc:title></dc:title>
      </cc:Work>
    </rdf:RDF>
  </metadata>
  <g
     inkscape:label="Layer 1"
     inkscape:groupmode="layer"
     id="layer1"
     transform="translate(0,-230.85417)">
    <g
       transform="matrix(0.35277777,0,0,-0.35277777,91.977886,633.59839)"
       id="g11836"
       style="fill:#1a1a1a">
      <g
         transform="translate(-43.382473,1340.2698)"
         id="g7305"
         style="fill:#1a1a1a" />
      <g
         transform="translate(-12.360973,1340.1287)"
         id="g7309"
         style="fill:#1a1a1a" />
      <g
         transform="translate(10.633127,1325.0999)"
         id="g7313"
         style="fill:#1a1a1a" />
      <g
         transform="translate(35.846527,1335.6341)"
         id="g7317"
         style="fill:#1a1a1a" />
      <g
         transform="translate(56.373427,1340.1092)"
         id="g7321"
         style="fill:#1a1a1a" />
      <g
         transform="translate(98.692227,1340.2698)"
         id="g7325"
         style="fill:#1a1a1a" />
    </g>
    <g
       style="fill:#1a1a1a"
       id="g16455"
       transform="matrix(0.35277777,0,0,-0.35277777,37.780694,772.27425)">
      <g
         style="fill:#1a1a1a"
         id="g7265"
         transform="translate(-77.040173,1506.0193)">
        <path
           d="M 0,0 H 203.646"
           style="fill:#1a1a1a;stroke:#1a1a1a;stroke-width:2;stroke-linecap:butt;stroke-linejoin:miter;stroke-miterlimit:10;stroke-dasharray:none;stroke-opacity:1"
           id="path7267"
           inkscape:connector-curvature="0" />
      </g>
      <g
         style="fill:#1a1a1a"
         id="g7269"
         transform="translate(-96.217373,1525.197)">
        <path
           d="M 0,0 H 241.088"
           style="fill:#1a1a1a;fill-opacity:0;stroke:#1a1a1a;stroke-width:2;stroke-linecap:butt;stroke-linejoin:miter;stroke-miterlimit:10;stroke-dasharray:none;stroke-opacity:1"
           id="path7271"
           inkscape:connector-curvature="0" />
      </g>
      <g
         style="fill:#1a1a1a"
         id="g7273"
         transform="translate(-13.368773,1381.8225)">
        <path
           d="M 0,0 V 106.626 H 16.98 V 104.15 H 6.415 V 2.477 H 16.98 V 0 Z"
           style="fill:#1a1a1a;fill-opacity:1;fill-rule:nonzero;stroke:none"
           id="path7275"
           inkscape:connector-curvature="0" />
      </g>
      <g
         style="fill:#1a1a1a"
         id="g7277"
         transform="translate(30.840727,1488.6682)">
        <path
           d="m 0,0 v -92.195 c 0,-15.578 -1.698,-27.395 -5.092,-35.447 -3.395,-8.052 -8.202,-12.079 -14.422,-12.079 -2.033,0 -3.852,0.411 -5.458,1.232 -1.606,0.823 -2.967,1.956 -4.086,3.402 -1.118,1.446 -1.971,3.106 -2.561,4.979 -0.589,1.874 -0.884,3.896 -0.884,6.064 0,3.155 0.6,5.736 1.798,7.741 1.2,2.006 2.714,3.007 4.544,3.007 0.853,0 1.657,-0.212 2.409,-0.641 0.752,-0.426 1.412,-1.051 1.981,-1.874 0.569,-0.82 1.027,-1.839 1.373,-3.056 0.344,-1.215 0.518,-2.579 0.518,-4.092 0,-1.578 -0.213,-3.17 -0.641,-4.782 -0.426,-1.611 -1.046,-3.008 -1.859,-4.191 0.527,-0.13 1.067,-0.261 1.616,-0.394 0.549,-0.132 1.107,-0.198 1.677,-0.198 1.585,0 2.906,0.462 3.963,1.381 1.057,0.921 1.891,2.416 2.501,4.487 0.61,2.07 1.046,4.816 1.311,8.233 0.264,3.419 0.396,7.659 0.396,12.719 v 97.817 h -9.208 V 0 Z"
           style="fill:#1a1a1a;fill-opacity:1;fill-rule:nonzero;stroke:none"
           id="path7279"
           inkscape:connector-curvature="0" />
      </g>
      <g
         style="fill:#1a1a1a"
         id="g7281"
         transform="translate(35.983727,1381.8225)">
        <path
           d="M 0,0 V 2.477 H 10.565 V 104.15 H 0 v 2.476 H 16.98 V 0 Z"
           style="fill:#1a1a1a;fill-opacity:1;fill-rule:nonzero;stroke:none"
           id="path7283"
           inkscape:connector-curvature="0" />
      </g>
      <g
         style="fill:#1a1a1a"
         id="g7285"
         transform="translate(22.329927,1514.1135)">
        <path
           d="M 0,0 C 2.219,0 4.094,-0.765 5.624,-2.294 7.832,-4.502 8.447,-7.431 7.468,-11.07 5.595,-14.37 3.11,-16.017 0,-16.017 c -2.22,0 -4.139,0.794 -5.758,2.385 -1.62,1.589 -2.43,3.493 -2.43,5.714 0,2.218 0.794,4.093 2.385,5.624 C -4.215,-0.765 -2.28,0 0,0"
           style="fill:#ff0808;fill-opacity:1;fill-rule:nonzero;stroke:none"
           id="path7287"
           inkscape:connector-curvature="0" />
      </g>
      <g
         style="fill:#1a1a1a"
         id="g7289"
         transform="translate(144.95393,1533.2913)">
        <path
           d="M 0,0 C 2.219,0 4.094,-0.766 5.624,-2.295 7.832,-4.503 8.447,-7.431 7.468,-11.07 5.595,-14.371 3.11,-16.017 0,-16.017 c -2.22,0 -4.139,0.794 -5.758,2.385 -1.62,1.589 -2.43,3.493 -2.43,5.714 0,2.218 0.794,4.093 2.384,5.623 C -4.215,-0.766 -2.28,0 0,0"
           style="fill:#1a1a1a;fill-opacity:1;fill-rule:nonzero;stroke:none"
           id="path7291"
           inkscape:connector-curvature="0" />
      </g>
      <g
         style="fill:#1a1a1a"
         id="g7293"
         transform="translate(-96.134373,1533.2913)">
        <path
           d="M 0,0 C 2.219,0 4.094,-0.766 5.625,-2.295 7.832,-4.503 8.447,-7.431 7.468,-11.07 5.596,-14.371 3.11,-16.017 0,-16.017 c -2.22,0 -4.139,0.794 -5.758,2.385 -1.62,1.589 -2.43,3.493 -2.43,5.714 0,2.218 0.794,4.093 2.385,5.623 C -4.214,-0.766 -2.28,0 0,0"
           style="fill:#1a1a1a;fill-opacity:1;fill-rule:nonzero;stroke:none"
           id="path7295"
           inkscape:connector-curvature="0" />
      </g>
      <g
         style="fill:#1a1a1a"
         id="g7297"
         transform="translate(-76.956673,1514.1135)">
        <path
           d="M 0,0 C 2.219,0 4.094,-0.765 5.624,-2.294 7.832,-4.502 8.447,-7.431 7.468,-11.07 5.595,-14.37 3.11,-16.017 0,-16.017 c -2.22,0 -4.139,0.794 -5.758,2.385 -1.62,1.589 -2.43,3.493 -2.43,5.714 0,2.218 0.794,4.093 2.384,5.624 C -4.215,-0.765 -2.28,0 0,0"
           style="fill:#1a1a1a;fill-opacity:1;fill-rule:nonzero;stroke:#1a1a1a;stroke-opacity:1"
           id="path7299"
           inkscape:connector-curvature="0" />
      </g>
      <g
         style="fill:#1a1a1a"
         id="g7301"
         transform="translate(126.91003,1514.1067)">
        <path
           d="m 0,0 c 2.218,-0.061 4.072,-0.877 5.559,-2.449 2.146,-2.268 2.68,-5.211 1.601,-8.822 -1.962,-3.248 -4.492,-4.825 -7.601,-4.74 -2.219,0.061 -4.116,0.908 -5.69,2.543 -1.576,1.633 -2.333,3.559 -2.272,5.779 0.061,2.217 0.907,4.07 2.539,5.555 C -4.234,-0.648 -2.279,0.063 0,0"
           style="fill:#1a1a1a;fill-opacity:1;fill-rule:nonzero;stroke:none"
           id="path7303"
           inkscape:connector-curvature="0" />
      </g>
      <path
         transform="matrix(0.75000002,0,0,-0.75000002,-260.72472,1796.027)"
         inkscape:connector-curvature="0"
         id="path16432"
         d="m 242.74871,396.8699 c -2.02411,-0.47162 -3.85029,-1.5036 -5.39596,-3.04927 -4.13109,-4.13108 -4.14794,-10.6504 -0.0379,-14.66984 5.67423,-5.54919 15.30268,-3.38729 17.58586,3.9486 0.52794,1.69626 0.62215,4.703 0.20418,6.51654 -0.56521,2.45243 -3.74096,5.79045 -6.50993,6.84258 -1.67872,0.63786 -4.13301,0.81056 -5.84622,0.41139 z"
         style="opacity:0.98999999;fill:#1a1a1a;fill-opacity:1;stroke:none;stroke-width:0.25253814;stroke-opacity:1" />
    </g>
  </g>
</svg>
