<svg id="Layer_1" data-name="Layer 1" xmlns="http://www.w3.org/2000/svg" viewBox="0 0 341 109"><defs><style>.cls-1,.cls-4{fill:#222a31;}.cls-2{opacity:0.26;}.cls-2,.cls-4,.cls-6{isolation:isolate;}.cls-3{fill:#010101;}.cls-4{font-size:62.66px;font-family:Cormorant-Regular, Cormorant;}.cls-5{letter-spacing:-0.01em;}.cls-7{fill:#fff;}</style></defs><title>icon</title><rect class="cls-1" x="7" y="73" width="327" height="33"/><g class="cls-2"><path class="cls-3" d="M77.06,40.6a55.9,55.9,0,0,0,9.07-10.87,18.41,18.41,0,0,0,2.77-9.42,13.1,13.1,0,0,0-3.18-9,10.59,10.59,0,0,0-8.31-3.6,11.75,11.75,0,0,0-9.21,4.43q-3.81,4.44-6.44,13.16c0,.09-.18.14-.55.14-.83,0-1.2-.19-1.11-.56L65.78,3c0-.19.18-.28.55-.28a1.43,1.43,0,0,1,.76.21c.23.14.3.25.21.34a6.74,6.74,0,0,0-.14,1.53c0,1.47.69,2.21,2.08,2.21a15.18,15.18,0,0,0,4.15-1,36.62,36.62,0,0,1,10.39-1.8Q91,4.25,95.13,8a12.59,12.59,0,0,1,4.16,9.83,17.78,17.78,0,0,1-3.47,10.25A51.07,51.07,0,0,1,87,37.62Q81.71,42.2,71,50.36c-.37.28-.48.51-.35.69s.44.28.9.28q14,0,19.8-.42c3.88-.27,6.76-1,8.66-2.07a8.56,8.56,0,0,0,3.8-5.82c.1-.28.4-.39.9-.35s.77.17.77.35L103.16,58a1.75,1.75,0,0,1-.34,1,1.07,1.07,0,0,1-.9.49H59.69c-.47,0-.84-.35-1.11-1a1.37,1.37,0,0,1,.14-1.59Q70.77,46.76,77.06,40.6Z"/><path class="cls-3" d="M127.6,57.56a26.48,26.48,0,0,1-10.25-10.32,30.06,30.06,0,0,1-3.67-14.88,28.21,28.21,0,0,1,3.74-14.54,26.46,26.46,0,0,1,10.32-10,30.45,30.45,0,0,1,14.88-3.6,29,29,0,0,1,14.61,3.67,26,26,0,0,1,10,10.18,29.8,29.8,0,0,1,3.6,14.67,29.81,29.81,0,0,1-3.6,14.68,25.84,25.84,0,0,1-10.11,10.18,31.33,31.33,0,0,1-29.56-.07Zm28-5.06q3.94-6.57,3.94-17.93,0-14-5.19-21T141.24,6.47a13.51,13.51,0,0,0-12.05,6.78Q124.9,20,124.9,31.11q0,12.33,5.26,20.15T144,59.08A12.68,12.68,0,0,0,155.57,52.5Z"/><path class="cls-3" d="M198.77,40.6a55.79,55.79,0,0,0,9.06-10.87,18.41,18.41,0,0,0,2.77-9.42,13.1,13.1,0,0,0-3.18-9,10.58,10.58,0,0,0-8.31-3.6,11.75,11.75,0,0,0-9.21,4.43q-3.81,4.44-6.43,13.16c0,.09-.19.14-.56.14-.83,0-1.2-.19-1.11-.56L187.48,3c0-.19.19-.28.56-.28a1.45,1.45,0,0,1,.76.21c.23.14.3.25.2.34a6.83,6.83,0,0,0-.13,1.53c0,1.47.69,2.21,2.07,2.21a15.3,15.3,0,0,0,4.16-1,36.56,36.56,0,0,1,10.38-1.8q7.2,0,11.35,3.74A12.59,12.59,0,0,1,221,17.82a17.83,17.83,0,0,1-3.46,10.25,51.41,51.41,0,0,1-8.79,9.55q-5.34,4.58-16,12.74c-.37.28-.48.51-.34.69s.43.28.9.28q14,0,19.8-.42c3.87-.27,6.76-1,8.65-2.07A8.61,8.61,0,0,0,225.56,43c.09-.28.39-.39.9-.35s.76.17.76.35L224.87,58a1.76,1.76,0,0,1-.35,1,1,1,0,0,1-.9.49H181.39c-.46,0-.83-.35-1.11-1a1.37,1.37,0,0,1,.14-1.59Q192.46,46.76,198.77,40.6Z"/><path class="cls-3" d="M249.3,57.56a26.46,26.46,0,0,1-10.24-10.32,30,30,0,0,1-3.67-14.88,28.11,28.11,0,0,1,3.74-14.54,26.5,26.5,0,0,1,10.31-10,30.52,30.52,0,0,1,14.89-3.6,29,29,0,0,1,14.6,3.67A25.93,25.93,0,0,1,289,18.1a29.8,29.8,0,0,1,3.6,14.67A29.81,29.81,0,0,1,289,47.45a25.84,25.84,0,0,1-10.11,10.18,31.33,31.33,0,0,1-29.56-.07Zm28-5.06q3.94-6.57,4-17.93,0-14-5.19-21T262.94,6.47a13.5,13.5,0,0,0-12,6.78q-4.31,6.8-4.3,17.86,0,12.33,5.26,20.15t13.85,7.82A12.67,12.67,0,0,0,277.27,52.5Z"/></g><text class="cls-4" transform="translate(38 73)">M<tspan class="cls-5" x="52.38" y="0">e</tspan><tspan x="77.57" y="0">dia Arts</tspan></text><g class="cls-6"><path class="cls-7" d="M40.94,94.34h-12l-2.72,7.32h-1L34.4,77.15h1.11l9.17,24.51h-1Zm-11.66-.91H40.61L35,78.25Z"/><path class="cls-7" d="M50.86,96.39l1,3.92,5.34-16.86h.92l5.3,16.86,1-3.92,3.7-12.94H69.2l-5.3,18.21H63L58.5,88l-.86-3.27L56.71,88l-4.42,13.68h-.91L46.09,83.45h1Z"/><path class="cls-7" d="M85.44,101.66a12.93,12.93,0,0,1-.33-3.33,7.35,7.35,0,0,1-3,2.71,9.08,9.08,0,0,1-4.22,1,5.87,5.87,0,0,1-4.07-1.38,4.57,4.57,0,0,1-1.54-3.57,4.64,4.64,0,0,1,2.27-4,11,11,0,0,1,6-1.54h4.5V88.83a4.48,4.48,0,0,0-1.44-3.55A6.06,6.06,0,0,0,79.55,84,6.62,6.62,0,0,0,75.4,85.3a3.86,3.86,0,0,0-1.67,3.16l-.91,0a4.66,4.66,0,0,1,2-3.77,7.47,7.47,0,0,1,4.78-1.55,7,7,0,0,1,4.68,1.47A5.32,5.32,0,0,1,86,88.73v8.7a11.59,11.59,0,0,0,.47,4.08v.15Zm-7.5-.57a8.13,8.13,0,0,0,4.4-1.15,7.07,7.07,0,0,0,2.77-3.21V92.4H80.9a9.89,9.89,0,0,0-6,1.55,3.8,3.8,0,0,0-1.68,3.15,3.62,3.62,0,0,0,1.33,2.83A5,5,0,0,0,77.94,101.09Z"/><path class="cls-7" d="M99.9,84.12,98.72,84a5.36,5.36,0,0,0-3.88,1.51,7.46,7.46,0,0,0-2.06,4.21v11.92h-.91V83.45h.91v3.79a6.81,6.81,0,0,1,2.22-3,6,6,0,0,1,3.72-1.11,3.49,3.49,0,0,1,1.28.19Z"/><path class="cls-7" d="M102.56,92.37a11.09,11.09,0,0,1,1.84-6.81,6,6,0,0,1,5-2.45,7,7,0,0,1,3.63.93,6.78,6.78,0,0,1,2.55,2.76v-11h.9v25.85h-.9V98.75a6.41,6.41,0,0,1-2.55,2.4,7.81,7.81,0,0,1-3.66.85,5.87,5.87,0,0,1-5-2.51,11.41,11.41,0,0,1-1.84-6.89Zm.94.35A10.66,10.66,0,0,0,105,98.84a4.93,4.93,0,0,0,4.34,2.25,7.16,7.16,0,0,0,3.85-1,6,6,0,0,0,2.38-2.94V88.62c-1-3.07-3.11-4.6-6.2-4.6a5,5,0,0,0-4.35,2.2C104,87.7,103.5,89.86,103.5,92.72Z"/><path class="cls-7" d="M133.5,97.2q0-3.32-5.66-4.51a11.11,11.11,0,0,1-4.73-1.86,3.91,3.91,0,0,1-1.33-3.12,4,4,0,0,1,1.69-3.3,7,7,0,0,1,4.41-1.3,7.42,7.42,0,0,1,4.73,1.41,4.59,4.59,0,0,1,1.78,3.79h-.93a3.76,3.76,0,0,0-1.54-3.06,6.32,6.32,0,0,0-4-1.23,6.22,6.22,0,0,0-3.79,1,3.16,3.16,0,0,0-1.4,2.61,3.23,3.23,0,0,0,.52,1.93,4.46,4.46,0,0,0,1.7,1.26A17.34,17.34,0,0,0,128.35,92a15,15,0,0,1,3.57,1.23,4.93,4.93,0,0,1,1.9,1.67,4.5,4.5,0,0,1,.59,2.37,4.1,4.1,0,0,1-1.77,3.46A7.54,7.54,0,0,1,128,102a8.15,8.15,0,0,1-4.94-1.39A4.28,4.28,0,0,1,121.19,97h.91a3.78,3.78,0,0,0,1.69,3,7.39,7.39,0,0,0,4.22,1.07,6.42,6.42,0,0,0,4-1.14A3.34,3.34,0,0,0,133.5,97.2Z"/><path class="cls-7" d="M164.8,94.15a8.49,8.49,0,0,1-2.61,5.82,8.81,8.81,0,0,1-6.12,2,8.15,8.15,0,0,1-4.62-1.33,8.66,8.66,0,0,1-3.12-3.75,13.24,13.24,0,0,1-1.13-5.56V87.57A13.6,13.6,0,0,1,148.29,82a8.67,8.67,0,0,1,3.12-3.82,8.31,8.31,0,0,1,4.66-1.34,8.85,8.85,0,0,1,6.11,2,8.42,8.42,0,0,1,2.62,5.79h-.91a7.79,7.79,0,0,0-2.35-5.15,7.94,7.94,0,0,0-5.47-1.75,7.08,7.08,0,0,0-5.77,2.69,11.09,11.09,0,0,0-2.19,7.22v3.6a12.72,12.72,0,0,0,1,5.13,8,8,0,0,0,2.81,3.47,7.23,7.23,0,0,0,4.18,1.25,8,8,0,0,0,5.49-1.74,7.6,7.6,0,0,0,2.33-5.2Z"/><path class="cls-7" d="M168.62,92.2a10.66,10.66,0,0,1,1-4.69,7.75,7.75,0,0,1,2.82-3.24,7.68,7.68,0,0,1,11.08,3.17,10.53,10.53,0,0,1,1,4.66v.81a10.73,10.73,0,0,1-1,4.69,7.6,7.6,0,0,1-2.82,3.23,7.49,7.49,0,0,1-4.13,1.17,7.56,7.56,0,0,1-7-4.36,10.57,10.57,0,0,1-1-4.63Zm.91.71a9.56,9.56,0,0,0,.9,4.16,7.16,7.16,0,0,0,2.51,3,6.59,6.59,0,0,0,3.68,1.06,6.3,6.3,0,0,0,5.07-2.34,9.06,9.06,0,0,0,2-6V92.2a9.57,9.57,0,0,0-.9-4.14,7.22,7.22,0,0,0-2.52-3A6.46,6.46,0,0,0,176.58,84a6.3,6.3,0,0,0-5.08,2.37,9.09,9.09,0,0,0-2,6Z"/><path class="cls-7" d="M202,101.66h-.91V89.43a6,6,0,0,0-1.2-4.07A4.82,4.82,0,0,0,196.11,84a5.8,5.8,0,0,0-4.9,2.64,8.89,8.89,0,0,0-1.5,3.5v11.5h-.92V83.45h.92v4.31a7.73,7.73,0,0,1,2.65-3.44,7,7,0,0,1,7.54-.2,4.92,4.92,0,0,1,1.91,3.3,6.71,6.71,0,0,1,2.63-3.14,7.36,7.36,0,0,1,4.07-1.17,5.49,5.49,0,0,1,4.39,1.67,7.51,7.51,0,0,1,1.45,5v11.88h-.9V89.86a6.84,6.84,0,0,0-1.21-4.44,4.6,4.6,0,0,0-3.78-1.4,6.32,6.32,0,0,0-5.25,2.64A5.62,5.62,0,0,0,202,89.55Z"/><path class="cls-7" d="M233.79,92.72A11.25,11.25,0,0,1,232,99.49a5.87,5.87,0,0,1-5,2.51,7.9,7.9,0,0,1-3.69-.85,6.35,6.35,0,0,1-2.52-2.32v9.83h-.91V83.45h.91V86.7A6.59,6.59,0,0,1,223.29,84a7.12,7.12,0,0,1,3.64-.93,6,6,0,0,1,5,2.45,11.28,11.28,0,0,1,1.83,6.88Zm-.92-.35a10.52,10.52,0,0,0-1.56-6.14A5,5,0,0,0,226.94,84a6.33,6.33,0,0,0-3.88,1.19,6.51,6.51,0,0,0-2.31,3.41v8.51a5.76,5.76,0,0,0,2.31,2.92,7.09,7.09,0,0,0,3.92,1,5,5,0,0,0,4.34-2.22A11.39,11.39,0,0,0,232.87,92.37Z"/><path class="cls-7" d="M245.29,102a7.35,7.35,0,0,1-4-1.19,8.08,8.08,0,0,1-2.88-3.26A10,10,0,0,1,237.31,93V92.2a10.61,10.61,0,0,1,1-4.63,8,8,0,0,1,2.78-3.28A6.77,6.77,0,0,1,245,83.11a6.39,6.39,0,0,1,5,2.17A8.31,8.31,0,0,1,251.87,91v1H238.22v1a9.18,9.18,0,0,0,.93,4.11,7.45,7.45,0,0,0,2.58,3,6.34,6.34,0,0,0,3.56,1.08,7.35,7.35,0,0,0,3.12-.61,6.42,6.42,0,0,0,2.28-1.88l.64.45A6.88,6.88,0,0,1,245.29,102ZM245,84a6,6,0,0,0-4.51,2,8.44,8.44,0,0,0-2.17,5H251v-.22a7.71,7.71,0,0,0-.78-3.44A6,6,0,0,0,248,84.9,5.51,5.51,0,0,0,245,84Z"/><path class="cls-7" d="M258.15,78.53v4.92h4.14v.91h-4.14V97.3a5.16,5.16,0,0,0,.63,2.86,2.36,2.36,0,0,0,2.11.93,13,13,0,0,0,1.8-.15l.15.85a6,6,0,0,1-1.9.21,3.37,3.37,0,0,1-2.84-1.11,5.72,5.72,0,0,1-.88-3.48v-13h-3.36v-.91h3.36V78.53Z"/><path class="cls-7" d="M266.77,77.76a.94.94,0,0,1,.27-.67.86.86,0,0,1,.65-.27.92.92,0,0,1,.94.94.9.9,0,0,1-.27.66,1,1,0,0,1-.67.26.91.91,0,0,1-.92-.92Zm1.38,23.9h-.91V83.45h.91Z"/><path class="cls-7" d="M276.16,78.53v4.92h4.14v.91h-4.14V97.3a5.16,5.16,0,0,0,.63,2.86,2.36,2.36,0,0,0,2.11.93,13.14,13.14,0,0,0,1.8-.15l.15.85a6,6,0,0,1-1.9.21,3.37,3.37,0,0,1-2.84-1.11,5.72,5.72,0,0,1-.88-3.48v-13h-3.36v-.91h3.36V78.53Z"/><path class="cls-7" d="M284.78,77.76a1,1,0,0,1,.26-.67.9.9,0,0,1,.66-.27.92.92,0,0,1,.94.94.9.9,0,0,1-.27.66,1,1,0,0,1-.67.26.89.89,0,0,1-.92-.92Zm1.38,23.9h-.91V83.45h.91Z"/><path class="cls-7" d="M290.75,92.2a10.65,10.65,0,0,1,1-4.69,7.78,7.78,0,0,1,2.83-3.24,7.56,7.56,0,0,1,4.13-1.16,7.64,7.64,0,0,1,4.11,1.13,7.55,7.55,0,0,1,2.83,3.2,10.53,10.53,0,0,1,1,4.66v.81a10.73,10.73,0,0,1-1,4.69,7.67,7.67,0,0,1-2.82,3.23,7.51,7.51,0,0,1-4.13,1.17,7.53,7.53,0,0,1-7-4.36,10.43,10.43,0,0,1-1-4.63Zm.91.71a9.56,9.56,0,0,0,.9,4.16,7.16,7.16,0,0,0,2.51,3,6.59,6.59,0,0,0,3.68,1.06,6.32,6.32,0,0,0,5.07-2.34,9.06,9.06,0,0,0,2-6V92.2a9.43,9.43,0,0,0-.91-4.14,7.13,7.13,0,0,0-2.51-3A6.49,6.49,0,0,0,298.71,84a6.3,6.3,0,0,0-5.08,2.37,9.09,9.09,0,0,0-2,6Z"/><path class="cls-7" d="M312,87.69a7.64,7.64,0,0,1,2.62-3.35,6.51,6.51,0,0,1,3.84-1.23,5.41,5.41,0,0,1,4.35,1.66,7.56,7.56,0,0,1,1.44,5v11.88h-.91V89.75a6.74,6.74,0,0,0-1.19-4.33,4.64,4.64,0,0,0-3.74-1.4,5.68,5.68,0,0,0-4.08,1.67A8.5,8.5,0,0,0,312,90v11.65h-.91V83.45H312Z"/></g></svg>